<svg version="1.1" id="Layer_1" xmlns="http://www.w3.org/2000/svg" xmlns:xlink="http://www.w3.org/1999/xlink" x="0px" y="0px"
	 width="100%" viewBox="0 0 1024 1024" enable-background="new 0 0 1024 1024" xml:space="preserve">
<path fill="#000000" opacity="1.000000" stroke="none" 
	d="
M365.441833,471.533447 
	C377.543304,483.498962 381.226593,497.712677 376.817596,513.447754 
	C372.523010,528.774536 362.000031,538.862976 346.232666,541.644165 
	C336.495300,543.361755 326.359406,542.827759 316.401459,543.282776 
	C313.371338,543.421265 312.952087,541.308411 312.800446,538.987549 
	C312.117676,528.538147 311.240448,518.097107 310.804291,507.637573 
	C310.492523,500.162018 309.368927,492.746796 309.594818,485.226837 
	C309.908356,474.789368 314.941162,466.991333 324.772522,463.387756 
	C339.752472,457.896973 353.191559,461.078278 365.441833,471.533447 
M337.345764,507.320282 
	C337.676819,511.629272 338.028595,515.936829 338.325531,520.248169 
	C338.408234,521.449036 338.593872,522.594055 339.499512,523.439026 
	C343.932251,527.574890 348.795197,531.071045 354.798523,532.466309 
	C357.928833,533.193848 360.313416,531.768982 361.706055,528.849182 
	C362.988251,526.160828 362.919556,523.352417 362.227783,520.549316 
	C357.244659,500.357025 345.611664,484.919891 328.420929,473.508911 
	C327.057037,472.603607 325.466797,471.915924 323.883911,471.495178 
	C321.940033,470.978516 319.720947,470.707397 318.590118,472.942932 
	C317.587463,474.925110 318.294708,476.854889 319.705048,478.467804 
	C321.516785,480.539825 324.077423,481.470520 326.441681,482.658264 
	C332.371216,485.636993 336.182678,490.050201 336.601105,496.938904 
	C336.792419,500.089020 337.088409,503.232849 337.345764,507.320282 
z"/>
<path fill="#000000" opacity="1.000000" stroke="none" 
	d="
M487.802307,467.010437 
	C497.055542,454.209076 511.280853,451.303284 524.559998,459.204041 
	C526.562622,460.395538 528.529724,461.682526 530.638794,462.652283 
	C535.563965,464.916840 538.463989,463.702393 540.427795,458.707153 
	C540.893188,457.523468 540.798157,455.767670 542.695312,456.037048 
	C544.476990,456.290009 544.217896,457.957306 544.350891,459.228851 
	C545.691772,472.052216 540.133362,481.883392 530.059875,484.613037 
	C522.076782,486.776245 515.639893,484.113647 510.322327,478.222382 
	C507.422150,475.009369 504.819641,471.528503 501.940155,468.295563 
	C499.529663,465.589264 496.481842,463.646851 493.395844,466.893066 
	C490.347717,470.099487 492.999908,472.757385 495.396545,474.910126 
	C500.603516,479.587280 507.010895,482.009338 513.582642,483.958435 
	C520.150146,485.906219 526.544861,488.208618 532.579224,491.497498 
	C543.661377,497.537567 548.430908,506.316956 546.143921,516.682312 
	C543.861816,527.025574 533.441589,535.523926 522.251221,536.309021 
	C517.298523,536.656555 512.630554,535.764343 508.192444,533.630371 
	C506.243927,532.693481 504.355927,531.623047 502.479340,530.545471 
	C493.371429,525.315674 491.087555,526.011414 487.272278,535.227905 
	C486.116638,535.593445 485.265778,535.181580 484.892487,534.077515 
	C481.088806,522.828491 488.772430,508.842041 500.184479,506.201721 
	C506.824524,504.665497 512.387878,506.987061 517.140747,511.359894 
	C520.317200,514.282471 523.116577,517.620544 526.024719,520.827087 
	C527.601685,522.565918 529.163086,524.334900 531.326233,525.315552 
	C533.696533,526.390137 535.922241,526.053894 537.605225,523.922668 
	C539.232605,521.861877 538.041931,520.035889 536.698486,518.561462 
	C530.749634,512.032593 522.818665,508.944855 514.673889,506.394104 
	C508.152435,504.351715 501.540833,502.540985 495.683502,498.909485 
	C484.032654,491.686035 481.102448,480.002533 487.802307,467.010437 
z"/>
<path fill="#000000" opacity="1.000000" stroke="none" 
	d="
M656.552124,506.541168 
	C664.982178,498.163574 675.858643,495.767151 687.872498,492.332550 
	C679.278076,490.215668 673.082581,486.377380 666.652161,483.021637 
	C664.454468,481.874725 662.173401,480.523865 659.663086,482.393372 
	C657.467529,484.028534 657.036621,486.057739 658.155029,488.551422 
	C658.589172,489.519501 658.391541,490.568817 657.365906,491.165497 
	C655.783813,492.085754 654.924377,490.842163 653.994019,489.919617 
	C645.925781,481.919708 648.191101,468.534149 658.706421,462.893951 
	C668.631836,457.570221 678.389343,459.109772 687.749756,464.416351 
	C691.057922,466.291809 693.972595,468.865601 697.049255,471.144409 
	C704.258789,476.484314 710.590027,474.808533 714.162476,466.607513 
	C714.736511,465.289795 714.958984,463.375946 717.052307,463.910187 
	C719.148438,464.445038 718.482422,466.318817 718.301941,467.684387 
	C716.740479,479.500977 709.918091,487.336731 699.379272,492.219574 
	C692.244141,495.525452 684.582581,497.260651 677.073975,499.452911 
	C667.343689,502.293945 659.170349,507.312500 653.446167,517.221130 
	C666.915344,507.442413 679.569641,509.197235 692.161987,517.145813 
	C694.401001,518.559143 696.822266,519.784912 699.309021,520.682983 
	C704.016602,522.383057 706.790771,519.993164 706.018738,515.073486 
	C705.814636,513.772644 705.040161,512.389221 706.555237,511.485535 
	C708.366943,510.404938 709.332703,511.993744 710.264038,513.049927 
	C714.130310,517.434509 716.033203,522.476074 714.230957,528.260437 
	C711.912903,535.700562 706.730713,540.372070 699.204895,542.196045 
	C690.078125,544.408081 681.696411,542.279175 674.048950,537.081421 
	C671.159485,535.117493 668.567444,532.714600 665.669617,530.764709 
	C658.933533,526.231934 652.229492,528.217163 648.800842,535.577209 
	C648.156128,536.960999 648.255798,539.417847 645.867310,538.843384 
	C643.204407,538.202881 644.406250,535.922913 644.598511,534.240356 
	C645.775574,523.937866 648.558777,514.305603 656.552124,506.541168 
z"/>
<path fill="#000000" opacity="1.000000" stroke="none" 
	d="
M627.853210,510.304199 
	C636.114136,522.467407 625.245911,537.134399 611.275330,538.248169 
	C602.580017,538.941406 594.846130,536.406067 587.882629,531.265869 
	C585.873657,529.782959 583.877380,528.263855 581.754822,526.957153 
	C575.177368,522.908020 568.340027,525.087463 565.295105,532.086670 
	C564.673645,533.515015 564.692749,535.952454 562.506226,535.596619 
	C559.957092,535.181763 560.771851,532.712036 560.878296,531.037476 
	C562.167969,510.741791 572.325684,497.759308 591.796265,491.415863 
	C594.950989,490.388092 598.122192,489.411041 602.800964,487.931274 
	C593.789551,486.214905 587.332947,481.918365 580.281738,478.984467 
	C574.785828,476.697662 571.833374,479.197998 572.886047,484.885010 
	C573.108215,486.084991 573.629639,487.217377 572.231140,487.889801 
	C570.704651,488.623810 569.759949,487.454803 568.784912,486.567230 
	C560.477539,479.005188 562.753357,464.747864 573.282349,459.107452 
	C582.779236,454.020020 592.288574,455.024292 601.481384,459.898560 
	C605.284119,461.914886 608.667969,464.707764 612.317810,467.028717 
	C619.207214,471.409698 625.222290,469.331512 628.120544,461.692871 
	C628.615662,460.387970 628.591248,458.253510 630.663696,458.596191 
	C633.015930,458.985168 632.426331,461.199524 632.239868,462.701263 
	C631.215332,470.954651 627.863953,478.018005 621.095398,483.149841 
	C613.507751,488.902649 604.629700,491.744873 595.625488,494.277130 
	C587.147766,496.661316 579.354187,500.212402 573.597046,507.220154 
	C572.859192,508.118225 572.153931,509.049500 571.512207,510.017548 
	C571.187683,510.507019 571.039001,511.113068 570.471619,512.488953 
	C575.731567,509.610107 580.278931,507.268738 585.475952,506.687897 
	C592.716309,505.878693 599.296814,507.817261 605.624451,511.162781 
	C608.853210,512.869873 612.140015,514.562195 615.576172,515.755493 
	C619.143250,516.994263 621.516846,515.082275 621.840820,511.603180 
	C622.008423,509.803925 619.556702,507.333466 622.370544,506.316589 
	C625.195435,505.295715 625.999207,508.537476 627.853210,510.304199 
z"/>
<path fill="#000000" opacity="1.000000" stroke="none" 
	d="
M446.366394,531.757019 
	C441.771698,528.207764 438.550140,523.988159 436.289917,519.092163 
	C434.976807,516.247681 433.215973,515.150330 430.012451,515.676331 
	C426.598145,516.237000 423.089600,516.223938 418.907379,516.510254 
	C420.557281,524.230469 425.278290,529.971375 429.309998,535.506531 
	C428.679382,537.153442 427.800476,537.187317 426.988983,537.219421 
	C418.178558,537.567200 409.369110,537.964050 400.555450,538.197571 
	C395.021423,538.344238 394.223785,537.271912 395.005554,531.720825 
	C397.010803,517.481812 402.617676,504.556030 409.546387,492.141388 
	C411.894257,487.934509 414.482941,483.843018 417.218689,479.876129 
	C421.208649,474.090607 419.407166,465.377045 413.182434,461.723145 
	C411.787781,460.904541 409.619110,460.640503 410.400452,458.395325 
	C411.088348,456.418549 413.128113,456.842316 414.752228,456.910767 
	C432.691833,457.666931 446.082916,467.232300 452.212402,484.188141 
	C456.166840,495.127289 459.514740,506.284607 463.250885,517.304688 
	C463.990173,519.485291 465.076752,521.604553 466.328125,523.542114 
	C468.259644,526.532837 471.092651,527.612427 474.554749,526.390137 
	C476.053589,525.861023 477.678772,524.323120 478.825867,526.565979 
	C479.796478,528.463745 478.099701,529.687683 476.914368,530.737366 
	C470.295044,536.599121 462.712311,538.379944 454.193237,535.792114 
	C451.462769,534.962708 448.959076,533.663208 446.366394,531.757019 
M424.136475,484.572266 
	C423.469879,483.382263 423.832642,481.465759 421.637756,481.168945 
	C414.822754,489.670074 414.103302,499.270935 416.470001,509.454315 
	C416.814484,510.936615 417.772583,511.863312 419.254883,511.862946 
	C423.516388,511.861847 427.825653,512.352234 432.670990,510.993805 
	C429.858063,502.240570 427.127594,493.743896 424.136475,484.572266 
z"/>
</svg>